<?xml version="1.0" encoding="utf-8"?>
<!-- Generator: Adobe Illustrator 27.0.0, SVG Export Plug-In . SVG Version: 6.00 Build 0)  -->
<svg version="1.1" id="Layer_1" xmlns="http://www.w3.org/2000/svg" xmlns:xlink="http://www.w3.org/1999/xlink" x="0px" y="0px"
	 viewBox="0 0 1920 1080" style="enable-background:new 0 0 1920 1080;" xml:space="preserve">
<style type="text/css">
	.st0{fill:#EF3E42;}
	.st1{fill:#BF2F38;}
	.st2{fill:#EF507F;}
</style>
<rect class="st0" width="1920" height="1080"/>
<path class="st1" d="M782.8,280.7c-10.5-5.1-28.5-16.4-32.6-29l0,0v0c-1.4-4.2-5.2-11.7-9.3-18.1c-2-3.2-4.1-6.2-6-8.4
	c-1.9-2.2-3.6-3.6-4.9-3.6h0c-7.4,0-9.6,0.7-10.9,1.4c-0.7,0.4-1.1,0.7-1.8,0.9c-0.7,0.2-1.9,0.4-3.9,0.4c-2.4,0-4.7,0.3-7,0.7
	c1.3-1.2,3.4-1.7,5.1-2l0.2,0l0-0.2c0.2-1.1,0.5-2,0.8-2.6c0.4-0.6,0.8-1,1.7-1c1.9,0,4.3,0.2,7,0.2c2.4,0,4.9-0.2,7.4-0.9l0.2,0
	l0.5-6.1l0-0.4c0-0.7-0.3-1.3-0.9-1.6c-0.6-0.3-1.3-0.4-2.2-0.4c-4.6,0-13.3,3-19.8,3h0c-0.2,0-0.5,0-0.7,0
	c-4.2-0.3-6.5-2.1-8.9-4.1c-2.4-2-5-4.2-9.6-5.3v-0.1c8.4-0.8,17.7-6.7,27.7-12.4c10.1-5.7,21-11.3,32.4-11.3h0h0
	c4.9,0,11.3,2.9,18,5.8c6.7,2.9,13.5,5.9,19.3,5.9c5.3,0,10.1-3.3,14.3-6.6c4.2-3.3,8-6.5,11-6.5h0h0c4.9,0,8.1,3.5,11.2,7
	c3.2,3.5,6.4,7.2,11.5,7.2c0.6,0,1.2,0,1.8-0.1l0.1,0c0.7,0,0.9,0.4,0.9,1c0,0.5-0.4,1.1-1.1,1.2l0,0l0,0c-10.1,2-6,1.6-14.3,2
	c-3.2,0-6-1.3-8.5-2.7c-2.4-1.4-4.5-2.7-6.4-2.8c-5.6,0-10.2,4-14.5,8.3c-3.3,3.3-7.4,5.8-10.8,8c-1.7,1.1-3.1,2.2-4.2,3.3
	c-1.1,1.1-1.7,2.2-1.7,3.5V253C774,261.8,777.6,272,782.8,280.7"/>
<path class="st2" d="M618.1,372.8c0.9-7.6-19.5,1.6-32.5,1.1c-11.9-0.9-13-10.1-26.1-13.1v-0.7c23.1-2.1,52-33,83.8-33
	c13.8,0,36,16.3,51.8,16.3c14.4,0,26.3-18.3,35.3-18.3c14.9,0,18.1,22,34.1,19.5c2.5-0.2,2.5,3.4,0,3.7c-14,2.7-8.5,2.3-19.9,2.7
	c-9.2,0-15.8-7.6-20.6-7.6c-7.6,0-14,5.5-19.9,11.5c-9.2,9.1-23.1,14-23.1,20.4v54c0,12.4,5.3,27,12.8,39.2
	c-14.4-6.9-40.5-22.9-46.5-41c-3.9-11.5-21.1-41.7-27.7-41.7c-20.6,0-11.7,3.9-23.1,3.9c-3.7,0-7.1,0.5-10.8,1.1
	c1.8-2.3,5.3-3.2,8-3.6c0.7-3,1.1-5.3,3.9-5.3c5,0,12.6,1.2,19.9-0.9L618.1,372.8z"/>
<path class="st1" d="M567.7,612.6l25.4-55.8l25.4,55.8h-20.3v13.9H588v-13.9H567.7z M534.2,660.5l25.4-55.8l25.4,55.8h-20.3v13.9
	h-10.1v-13.9H534.2 M601.1,660.5l25.4-55.8l25.4,55.8h-20.3v13.9h-10.1v-13.9H601.1z"/>
<path class="st2" d="M222.3,626.3h-9.6v-13.9h-20.2l25-54.9l25,54.9l-20.2,0V626.3z M179.3,674.2v-13.9h-20.2l25-54.9l25,54.9h-20.2
	v13.9H179.3 M255.7,674.2h-9.6v-13.9H226l25-54.9l25,54.9h-20.2V674.2"/>
<path class="st2" d="M597.8,746.7h-9.6v-13.9h-20.2l25-54.9l25,54.9h-20.2V746.7z M564.4,794.6h-9.6v-13.9h-20.2l25-54.9l25,54.9
	h-20.2V794.6 M631.3,794.6h-9.6v-13.9h-20.2l25-54.9l25,54.9h-20.2V794.6"/>
<path class="st1" d="M464.1,746.7h-9.6v-13.9h-20.2l25-54.9l25,54.9h-20.2V746.7z M430.6,794.6h-9.6v-13.9h-20.2l25-54.9l25,54.9
	h-20.2V794.6 M497.5,794.6h-9.6v-13.9h-20.2l25-54.9l25,54.9h-20.2V794.6"/>
<path class="st1" d="M560.2,900.1l35.5-78.1l35.5,78.1h-28.5v19.5h-14.1v-19.5H560.2z M513.3,967.1l35.5-78.1l35.5,78.1h-28.5v19.5
	h-14.1v-19.5H513.3 M607,967.1l35.5-78.1l35.5,78.1h-28.5v19.5h-14.1v-19.5H607z"/>
<path class="st1" d="M118.3,232.7h-5.6v-8.4h-12.1l14.8-32.6l14.8,32.6h-12.1V232.7z M98.2,261.5h-5.5v-8.4H80.6l14.8-32.6
	l14.8,32.6H98.2V261.5 M138.3,261.5h-5.5v-8.4h-12.1l14.8-32.6l14.8,32.6h-12.1V261.5"/>
<path class="st2" d="M183.2,224.6l15.2-33.5l15.2,33.5h-12.2v8.4h-6.1v-8.4H183.2z M163.1,253.3l15.2-33.5l15.2,33.5h-12.2v8.4h-6.1
	v-8.4H163.1 M203.2,253.3l15.2-33.5l15.2,33.5h-12.2v8.4h-6v-8.4H203.2z"/>
<path class="st1" d="M343.7,224.6l15.2-33.5l15.2,33.5h-12.2v8.4h-6.1v-8.4H343.7z M323.6,253.3l15.2-33.5l15.2,33.5h-12.2v8.4h-6.1
	v-8.4H323.6 M363.7,253.3l15.2-33.5l15.2,33.5H382v8.4h-6v-8.4H363.7z"/>
<path class="st2" d="M486.8,107.6h-5.6v-8.4h-12.1L484,66.7l14.8,32.6h-12.1V107.6z M466.7,136.4h-5.5V128h-12.1l14.8-32.6
	l14.8,32.6h-12.1V136.4 M506.8,136.4h-5.5V128h-12.1L504,95.4l14.8,32.6h-12.1V136.4"/>
<path class="st2" d="M577.4,107.6h-5.6v-8.4h-12.1l14.8-32.6l14.8,32.6h-12.1V107.6z M557.4,136.4h-5.5V128h-12.1l14.8-32.6
	l14.8,32.6h-12.1V136.4 M597.5,136.4h-5.5V128h-12.1l14.8-32.6l14.8,32.6h-12.1V136.4"/>
<path class="st1" d="M263.4,304.8l15.2-33.5l15.2,33.5h-12.2v8.4h-6.1v-8.4H263.4z M243.4,333.6l15.2-33.5l15.2,33.5h-12.2v8.4h-6.1
	v-8.4H243.4 M283.5,333.6l15.2-33.5l15.2,33.5h-12.2v8.4h-6v-8.4H283.5z"/>
<path class="st2" d="M281.4,437.3h-5.6v-8.4h-12.1l14.8-32.6l14.8,32.6h-12.1V437.3z M261.3,466h-5.5v-8.4h-12.1l14.8-32.6
	l14.8,32.6h-12.1V466 M301.5,466h-5.5v-8.4h-12.1l14.8-32.6l14.8,32.6h-12.1V466"/>
<path class="st2" d="M514.4,437.3h-5.6v-8.4h-12.1l14.8-32.6l14.8,32.6h-12.1V437.3z M494.4,466h-5.5v-8.4h-12.1l14.8-32.6
	l14.8,32.6h-12.1V466 M534.5,466h-5.5v-8.4h-12.1l14.8-32.6l14.8,32.6h-12.1V466"/>
<path class="st1" d="M388.9,534c0,4.4-3.4,7.6-7.7,7.6c-4.2,0-7.6-3.2-7.6-7.6c0-4.2,3.4-7.6,7.6-7.6
	C385.5,526.4,388.9,529.8,388.9,534 M339.5,541.5c0,4-3.2,7.1-7.1,7.1c-4,0-7.1-3.1-7.1-7.1c0-3.8,3.1-7.1,7.1-7.1
	C336.3,534.5,339.5,537.7,339.5,541.5 M360.8,538.3c1-2.3,1.9-2.5,3.9-1.3l1.6,0.8c2.1,1.1,2.2,1.7,1.1,4l-9.3,17.7
	c-1,2.1-1.9,2.3-4,1.1l-1.5-0.6c-2.1-1.3-2.4-1.9-1.3-4L360.8,538.3z M313.1,546c0.8-1.7,1.6-1.9,3.4-1.1l1.3,0.8
	c1.8,0.8,2.1,1.6,1.1,3.4l-8.2,15.3c-0.8,1.7-1.5,2-3.2,1l-1.4-0.8c-1.8-0.8-1.9-1.4-1.1-3.2L313.1,546z M350.1,621.7L345,618
	l14.5-39.4c-3.7-3.7-3.7-9.7-1.6-14.5l10.1-19c2.2-4.2,5.5-3.9,8.1-3.1c4.8,1.1,6.9,5.8,7.2,8.4l1.3,11.8l17.1,11.1l-1,3.4l-2.7-0.9
	l-15.6,24.9l4,18.8l-7.7,2.6l-2.6-11.4l-6,10h-4.5l9.5-15.3l-1.4-7.2l-6.6-10.6L350.1,621.7z M323,620.5h-4.3l8.4-14.7l-2.4-9.2
	l-4.7-5.3l-14.8,29.7l-4.7-3.7l11.9-36.3c-3.1-3.1-4.3-7.1-1.3-12.8l8.5-16.4c2.1-3.7,5.3-3.8,7.4-2.7c3.7,1.9,6.8,3.4,7.4,7.1
	l1,8.1l16.4,12.5l-1.6,3.1l-2.9-1.5l-13.5,23.2l4.3,17.1l-7.1,2.4l-2.7-9.8L323,620.5z M373.2,573.9c3.1,3.4,6,10.9,8.1,21.4
	l13.2-20.9l-14.3-5.3l-1.8-5.6L373.2,573.9z M324.6,576.9l6.3,12.4l1.8,6.8l11.1-19.5l-11-5.9l-3.1-6.3L324.6,576.9z"/>
<path class="st2" d="M181.5,874.9l69.2-152.1l69.2,152.1h-55.4v38h-27.5v-38H181.5z M90.3,1005.5l69.2-152.1l69.2,152.1h-55.5v38
	h-27.5v-38H90.3 M272.6,1005.5l69.2-152.1l69.2,152.1h-55.5v38h-27.5v-38H272.6z"/>
<path class="st1" d="M1221.7,409.1c1.7-14.3-36.9,3-61.7,2.2c-22.6-1.7-24.7-19.1-49.5-24.7v-1.3c43.8-3.9,98.5-62.5,158.8-62.5
	c26.1,0,68.1,30.8,98.1,30.8c27.4,0,49.9-34.7,66.8-34.7c28.2,0,34.3,41.7,64.7,36.9c4.8-0.4,4.8,6.5,0,6.9
	c-26.5,5.2-16.1,4.3-37.8,5.2c-17.4,0-30-14.3-39.1-14.3c-14.3,0-26.5,10.4-37.8,21.7c-17.4,17.3-43.8,26.5-43.8,38.6v102.4
	c0,23.5,10,51.3,24.3,74.2c-27.4-13-76.8-43.4-88.1-77.7c-7.4-21.7-40-79-52.5-79c-39.1,0-22.2,7.4-43.8,7.4
	c-6.9,0-13.5,0.9-20.4,2.1c3.5-4.3,10-6,15.2-6.9c1.3-5.7,2.2-10,7.4-10c9.5,0,23.9,2.2,37.7-1.7L1221.7,409.1z"/>
<path class="st1" d="M1213.2,791.4c-0.1-0.3-0.1-0.5-0.1-0.7c0-0.6,0.2-1.2,0.2-2c0-0.8,0.7-2.4,1.6-3.9c0.9-1.5,2-3,2.6-3.7l0,0
	l0,0c3.7-4.2,8.7-11.6,9-16.1c0.1-0.9,0.2-2.2,0.2-3.7c0-2.4-0.2-5.6-0.8-9.2c3.8,3.6,7.3,12.1,7.3,20.4c0,2.2-0.3,4.5-0.8,6.6l0,0
	l0,0c-0.8,3.6-5,7.5-7.4,8.6l0.1,0.2l-0.1-0.2C1221.7,789.3,1217.4,789.3,1213.2,791.4 M1201.9,791.5c-6.1-0.3-10.1-2.7-12.6-5.7
	c-2.6-3.1-3.5-6.9-3.5-9.3c0-4.7,2.2-10.1,7.1-14.3c-0.6,2.4-1,5.4-1.1,8.5c0,0.3,0,0.7,0,1c0,2.9,0.5,5.4,0.7,7.4l0,0l0,0
	C1193.7,785.2,1198.4,789,1201.9,791.5 M1207.5,791.7c-5.6-4.3-11.5-10.6-11.5-23.3c0-9.4,10.1-22.8,12-25.3l0,0l0,0
	c2.6-3.6,4.2-6.8,4.3-12.2c3.9,4.8,10.4,19,10.4,29c0,7.8-1.6,10.1-3.1,12.6l0,0l0,0c-1.1,2-4.6,5.9-5.9,7.7
	C1210.9,783.6,1208.4,788,1207.5,791.7 M1224.3,800c-3.2-0.4-8.3-1.5-11.7-2.8c4.5-2.2,8.7-2.7,11.5-3.3l6.6-1.6
	c1.9,0.7,3,1.9,3,3.6c0,0.4-0.1,0.8-0.2,1.3L1224.3,800 M1215.2,800.1L1215.2,800.1L1215.2,800.1 M1224.4,800.3L1224.4,800.3
	 M1227.5,810.5c-2.1-0.4-4-1.5-5.8-1.8l0,0h0c-1.9-0.1-6.1-0.9-11.5-1.6c-4.8-0.5-7.3-2.5-11.4-3.8c-3.7-1.1-10.4-1.6-11.7-1.7
	c-0.2-0.7-0.3-1.4-0.3-2.1c0-1.6,0.6-2.9,2.1-4.4c1.9,0.3,12.1,1.6,16.9,2.3c3,0.5,5.8,1.9,9.3,2.8c5.9,1.5,11.9,2.6,14.9,2.7v0
	c-2,0.9-3,2.6-3,4.8C1227.1,808.6,1227.2,809.5,1227.5,810.5 M1231.6,811.2c-0.9,0-1.4-0.4-1.7-1c-0.3-0.6-0.4-1.4-0.4-2.1
	c0-1.1,0.4-2.1,1-2.9c0.6-0.8,1.4-1.2,2.2-1.2h0c0.7,0,1.2,0.4,1.5,1.1c0.4,0.7,0.6,1.7,0.6,2.6c0,0.8-0.3,1.7-0.9,2.4
	C1233.4,810.7,1232.6,811.2,1231.6,811.2 M1192.3,813.7c0.2-0.9,0.3-1.8,0.3-2.6c0-2-0.7-3.8-2.8-5.1l3.7-1.5c3.2,0,6.6,1.8,10,3.2
	L1192.3,813.7 M1191.9,814.2L1191.9,814.2 M1187.7,815.2V815c-1,0-1.8-0.4-2.3-1c-0.5-0.6-0.8-1.5-0.8-2.7c0-1.1,0.3-2.1,0.8-2.7
	c0.5-0.7,1.2-1,2.3-1c1.1,0,1.8,0.4,2.3,1c0.5,0.7,0.7,1.6,0.7,2.7c0,1.1-0.2,2-0.7,2.7c-0.5,0.6-1.2,1-2.3,1V815.2"/>
<path class="st1" d="M1222.9,760c0,7.8-1.7,10.3-3.1,12.7c-1.1,2.1-4.6,6-6,7.7"/>
<path class="st2" d="M1745.8,495.5l25.4-55.8l25.4,55.8h-20.3v13.9h-10.1v-13.9H1745.8z M1712.4,543.4l25.4-55.8l25.4,55.8h-20.3
	v13.9h-10.1v-13.9H1712.4 M1779.2,543.4l25.4-55.8l25.4,55.8h-20.3v13.9h-10.1v-13.9H1779.2z"/>
<path class="st1" d="M1536.3,683.9l25.4-55.8l25.4,55.8h-20.3v13.9h-10.1v-13.9H1536.3z M1502.8,731.8l25.4-55.8l25.4,55.8h-20.3
	v13.9h-10.1v-13.9H1502.8 M1569.7,731.8l25.4-55.8l25.4,55.8h-20.3v13.9H1590v-13.9H1569.7z"/>
<path class="st1" d="M1701.7,659.3l35.5-78.1l35.5,78.1h-28.5v19.5h-14.1v-19.5H1701.7z M1654.9,726.3l35.5-78.1l35.5,78.1h-28.5
	v19.5h-14.1v-19.5H1654.9 M1748.5,726.3l35.5-78.1l35.5,78.1h-28.5v19.5H1777v-19.5H1748.5z"/>
<path class="st1" d="M1602.3,852.7h-13.6v-19.5h-28.3l35.1-77.2l35.1,77.2h-28.3V852.7z M1555.5,919.7h-13.6v-19.5h-28.3l35.1-77.2
	l35.1,77.2h-28.3V919.7 M1649.1,919.7h-13.6v-19.5h-28.3l35.1-77.2l35.1,77.2h-28.3V919.7"/>
<path class="st2" d="M1529.7,522.9h-5.6v-8.4h-12.1l14.8-32.6l14.8,32.6h-12.1V522.9z M1509.6,551.7h-5.5v-8.4H1492l14.8-32.6
	l14.8,32.6h-12.1V551.7 M1549.7,551.7h-5.5v-8.4h-12.1l14.8-32.6l14.8,32.6h-12.1V551.7"/>
<path class="st1" d="M1689.6,313h-5.6v-8.4H1672l14.8-32.6l14.8,32.6h-12.1V313z M1669.5,341.7h-5.5v-8.4h-12.1l14.8-32.6l14.8,32.6
	h-12.1V341.7 M1709.7,341.7h-5.5v-8.4h-12.1l14.8-32.6l14.8,32.6h-12.1V341.7"/>
<path class="st1" d="M1756.3,304.8l15.2-33.5l15.2,33.5h-12.2v8.4h-6.1v-8.4H1756.3z M1736.2,333.6l15.2-33.5l15.2,33.5h-12.2v8.4
	h-6v-8.4H1736.2 M1776.3,333.6l15.2-33.5l15.2,33.5h-12.2v8.4h-6v-8.4H1776.3z"/>
<path class="st2" d="M1586.9,381.5l15.2-33.5l15.2,33.5h-12.2v8.4h-6.1v-8.4H1586.9z M1566.8,410.3l15.2-33.5l15.2,33.5H1585v8.4h-6
	v-8.4H1566.8 M1606.9,410.3l15.2-33.5l15.2,33.5h-12.2v8.4h-6v-8.4H1606.9z"/>
<path class="st1" d="M1468.7,801.7L1468.7,801.7l-0.2-0.4l-0.2,0.1v-0.3v0.3l0.2-0.1l-15.7-30.9l-15.9,31.2H1468.7z M1494.6,806.1
	h-83.7v-4.3h11l30.9-61.4l30.9,61.4h11V806.1"/>
</svg>
