<?xml version="1.0" encoding="utf-8"?>
<!-- Generator: Adobe Illustrator 27.0.0, SVG Export Plug-In . SVG Version: 6.00 Build 0)  -->
<svg version="1.1" id="Layer_1" xmlns="http://www.w3.org/2000/svg" xmlns:xlink="http://www.w3.org/1999/xlink" x="0px" y="0px"
	 viewBox="0 0 28.3 28.3" style="enable-background:new 0 0 28.3 28.3;" xml:space="preserve">
<style type="text/css">
	.st0{fill:#FFFFFF;}
</style>
<path class="st0" d="M1.2,3.6c0-0.6,0.5-1.1,1.1-1.1h2.1c1,0,1.9,0.6,2.3,1.5h18.6c1.2,0,2.1,1.1,1.8,2.3l-1.9,6.9
	c-0.4,1.4-1.7,2.4-3.2,2.4H8.9l0.2,1.3c0.1,0.5,0.5,0.9,1.1,0.9h13.1c0.6,0,1.1,0.5,1.1,1.1c0,0.6-0.5,1.1-1.1,1.1H10.3
	c-1.6,0-2.9-1.1-3.2-2.7L4.7,5c0-0.2-0.2-0.3-0.4-0.3H2.3C1.7,4.7,1.2,4.2,1.2,3.6z M7,23.6c0-1.2,1-2.2,2.2-2.2
	c1.2,0,2.2,1,2.2,2.2c0,1.2-1,2.2-2.2,2.2C8,25.8,7,24.8,7,23.6L7,23.6z M22.2,21.4c1.2,0,2.2,1,2.2,2.2c0,1.2-1,2.2-2.2,2.2l0,0
	c-1.2,0-2.2-1-2.2-2.2C20.1,22.4,21,21.4,22.2,21.4z"/>
</svg>
