<?xml version="1.0" encoding="utf-8"?>
<!-- Generator: Adobe Illustrator 27.0.0, SVG Export Plug-In . SVG Version: 6.00 Build 0)  -->
<svg version="1.1" id="Layer_1" xmlns="http://www.w3.org/2000/svg" xmlns:xlink="http://www.w3.org/1999/xlink" x="0px" y="0px"
	 viewBox="0 0 28.3 28.3" style="enable-background:new 0 0 28.3 28.3;" xml:space="preserve">
<style type="text/css">
	.st0{fill:#BF2F38;}
	.st1{fill:#FFFFFF;}
</style>
<g>
	<path class="st0" d="M26.9,28.3H1.4c-0.8,0-1.4-0.6-1.4-1.4V1.4C0,0.6,0.6,0,1.4,0h25.5c0.8,0,1.4,0.6,1.4,1.4v25.5
		C28.3,27.7,27.7,28.3,26.9,28.3z"/>
	<path class="st1" d="M15.2,20.1l3.4-7.4l3.4,7.4h-2.7V22h-1.3v-1.8H15.2z M6.4,20.1l3.4-7.4l3.4,7.4h-2.7V22H9.1v-1.8H6.4z
		 M10.8,13.8l3.4-7.4l3.4,7.4h-2.7v1.8h-1.3v-1.8H10.8z"/>
</g>
</svg>
