<?xml version="1.0" encoding="utf-8"?>
<!-- Generator: Adobe Illustrator 27.0.0, SVG Export Plug-In . SVG Version: 6.00 Build 0)  -->
<svg version="1.1" id="Layer_1" xmlns="http://www.w3.org/2000/svg" xmlns:xlink="http://www.w3.org/1999/xlink" x="0px" y="0px"
	 viewBox="0 0 28.3 28.3" style="enable-background:new 0 0 28.3 28.3;" xml:space="preserve">
<style type="text/css">
	.st0{fill:#BF2F38;}
</style>
<path class="st0" d="M21.2,6.2c-0.6-0.6-1.5-0.6-2-0.1c-0.6,0.6-0.7,1.5-0.1,2.1l4.2,4.6L22,12.7l-20.5,0c-0.8,0-1.5,0.7-1.5,1.4
	c0,0.8,0.7,1.5,1.5,1.5H22l1.3-0.3L19,20.1c-0.6,0.6-0.5,1.5,0.1,2.1c0.3,0.3,0.7,0.4,1,0.4c0.4,0,0.8-0.2,1-0.5l7.1-7.9L21.2,6.2z"
	/>
</svg>
