<?xml version="1.0" encoding="utf-8"?>
<!-- Generator: Adobe Illustrator 27.0.0, SVG Export Plug-In . SVG Version: 6.00 Build 0)  -->
<svg version="1.1" id="Layer_1" xmlns="http://www.w3.org/2000/svg" xmlns:xlink="http://www.w3.org/1999/xlink" x="0px" y="0px"
	 viewBox="0 0 28.3 28.3" style="enable-background:new 0 0 28.3 28.3;" xml:space="preserve">
<style type="text/css">
	.st0{fill:#FFFFFF;}
</style>
<path class="st0" d="M4.4,6.8C4,6.8,3.6,7.2,3.6,7.7v1.1l8.8,7.2c1.1,0.9,2.6,0.9,3.6,0l8.8-7.2V7.7c0-0.4-0.4-0.8-0.8-0.8H4.4z
	 M3.6,11.9v8.7c0,0.4,0.4,0.8,0.8,0.8h19.5c0.4,0,0.8-0.4,0.8-0.8v-8.7l-7.2,5.9c-1.9,1.6-4.8,1.6-6.7,0L3.6,11.9z M1.2,7.7
	c0-1.8,1.5-3.2,3.2-3.2h19.5c1.8,0,3.2,1.5,3.2,3.2v13c0,1.8-1.5,3.2-3.2,3.2H4.4c-1.8,0-3.2-1.5-3.2-3.2V7.7z"/>
</svg>
