<?xml version="1.0" encoding="utf-8"?>
<!-- Generator: Adobe Illustrator 27.0.0, SVG Export Plug-In . SVG Version: 6.00 Build 0)  -->
<svg version="1.1" id="Layer_1" xmlns="http://www.w3.org/2000/svg" xmlns:xlink="http://www.w3.org/1999/xlink" x="0px" y="0px"
	 viewBox="0 0 28.3 28.3" style="enable-background:new 0 0 28.3 28.3;" xml:space="preserve">
<style type="text/css">
	.st0{fill:#FFFFFF;}
</style>
<g>
	<path class="st0" d="M21.6,10.3c2,0,3.6-1.6,3.6-3.6c0-2-1.6-3.6-3.6-3.6s-3.6,1.6-3.6,3.6v8.8h-1.9V6.7c0-3,2.5-5.5,5.5-5.5
		s5.5,2.5,5.5,5.5c0,3-2.5,5.5-5.5,5.5h-2.9v-1.9H21.6z"/>
	<path class="st0" d="M10.3,6.7v2.9h1.9V6.7c0-3-2.5-5.5-5.5-5.5c-3,0-5.5,2.5-5.5,5.5s2.5,5.5,5.5,5.5h8.8v-1.9H6.7
		c-2,0-3.6-1.6-3.6-3.6c0-2,1.6-3.6,3.6-3.6S10.3,4.7,10.3,6.7"/>
	<path class="st0" d="M12.1,22.7L12.1,22.7c-0.5,2.6-2.7,4.5-5.4,4.5c-2.7,0-4.9-1.9-5.4-4.5c-0.1-0.3-0.1-0.7-0.1-1
		c0-3,2.5-5.5,5.5-5.5h2.9v1.9H6.7c-2,0-3.6,1.6-3.6,3.6c0,0.4,0.1,0.7,0.1,1c0.4,1.5,1.8,2.6,3.4,2.6c1.6,0,3-1.1,3.4-2.6v0
		c0.1-0.3,0.1-0.7,0.1-1v-8.8h1.9v8.8C12.2,22,12.2,22.3,12.1,22.7"/>
	<path class="st0" d="M27.2,21.6c0-3-2.5-5.5-5.5-5.5h-8.8v1.9h8.8c2,0,3.6,1.6,3.6,3.6c0,0.4-0.1,0.7-0.1,1v0
		c-0.4,1.5-1.8,2.6-3.4,2.6c-1.6,0-3-1.1-3.4-2.6h0c-0.1-0.3-0.1-0.7-0.1-1v-2.9h-1.9v2.9c0,0.3,0,0.7,0.1,1
		c0.5,2.6,2.7,4.5,5.4,4.5c2.7,0,4.9-1.9,5.4-4.5v0C27.1,22.3,27.2,22,27.2,21.6"/>
</g>
</svg>
