<?xml version="1.0" encoding="utf-8"?>
<!-- Generator: Adobe Illustrator 27.0.0, SVG Export Plug-In . SVG Version: 6.00 Build 0)  -->
<svg version="1.1" id="Layer_1" xmlns="http://www.w3.org/2000/svg" xmlns:xlink="http://www.w3.org/1999/xlink" x="0px" y="0px"
	 viewBox="0 0 28.3 28.3" style="enable-background:new 0 0 28.3 28.3;" xml:space="preserve">
<style type="text/css">
	.st0{fill:#BF2F38;}
</style>
<path class="st0" d="M12.5,21c0,0.9,0.7,1.7,1.7,1.7c0.9,0,1.7-0.7,1.7-1.7c0-0.9-0.7-1.7-1.7-1.7C13.2,19.4,12.5,20.1,12.5,21
	 M13,16.9c0.1,0.6,0.5,1.2,1.1,1.2s1-0.6,1.1-1.2l0.6-5.6c0.1-0.9-0.7-1.8-1.7-1.8c-0.9,0-1.8,0.9-1.7,1.8L13,16.9z M0.4,23.7
	C0.1,24.2,0,24.5,0,25c0,1,0.8,1.4,2,1.4h24.3c1.2,0,2-0.4,2-1.4c0-0.4-0.1-0.8-0.4-1.3L15.4,2.7c-0.3-0.5-0.7-0.8-1.3-0.8
	s-1,0.3-1.3,0.8L0.4,23.7z M14.1,5.6l10.5,17.8h-21L14.1,5.6z"/>
</svg>
